<svg width="20" height="20" viewBox="0 0 20 20" fill="none" xmlns="http://www.w3.org/2000/svg">
<path d="M10 20C15.4833 20 20 15.4854 20 10.0048C20 4.52415 15.4737 0 10 0C4.51675 0 0 4.52415 0 10.0048C0 15.4854 4.51675 20 10 20ZM10 17.7523C5.70335 17.7523 2.25837 14.2994 2.25837 10.0048C2.25837 5.71019 5.69378 2.24773 10 2.24773C14.2967 2.24773 17.7512 5.71019 17.7608 10.0048C17.7608 14.2994 14.2967 17.7523 10 17.7523ZM5.32057 11.3343H10C10.4689 11.3343 10.8421 10.9613 10.8421 10.483V4.38068C10.8421 3.912 10.4689 3.53898 10 3.53898C9.52153 3.53898 9.14832 3.912 9.14832 4.38068V9.64132H5.32057C4.84211 9.64132 4.47847 10.0143 4.47847 10.483C4.47847 10.9613 4.84211 11.3343 5.32057 11.3343Z" fill="#003A5D"/>
</svg>
