<svg width="34" height="34" viewBox="0 0 34 34" fill="none" xmlns="http://www.w3.org/2000/svg">
<path d="M15.5833 14.1666H12.75V18.4166H8.5V21.25H12.75V25.5H15.5833V21.25H19.8333V18.4166H15.5833V14.1666Z" fill="#33AADD"/>
<path d="M5.66665 31.1667H22.6666C24.2292 31.1667 25.5 29.8959 25.5 28.3333V11.3333C25.5 9.77075 24.2292 8.5 22.6666 8.5H5.66665C4.10406 8.5 2.83331 9.77075 2.83331 11.3333V28.3333C2.83331 29.8959 4.10406 31.1667 5.66665 31.1667ZM5.66665 11.3333H22.6666L22.6695 28.3333H5.66665V11.3333Z" fill="#33AADD"/>
<path d="M28.3333 2.83337H11.3333V5.66671H28.3333V22.6667H31.1666V5.66671C31.1666 4.10412 29.8959 2.83337 28.3333 2.83337Z" fill="#33AADD"/>
</svg>
