<svg width="24" height="28" viewBox="0 0 24 28" fill="none" xmlns="http://www.w3.org/2000/svg">
<path d="M8 3.33329V1.99996C8 1.64634 8.14048 1.3072 8.39052 1.05715C8.64057 0.807102 8.97971 0.666626 9.33333 0.666626H14.6667C15.0203 0.666626 15.3594 0.807102 15.6095 1.05715C15.8595 1.3072 16 1.64634 16 1.99996V3.33329H21.3333C22.0406 3.33329 22.7189 3.61424 23.219 4.11434C23.719 4.61444 24 5.29272 24 5.99996V7.33329C24 8.04054 23.719 8.71881 23.219 9.21891C22.7189 9.71901 22.0406 9.99996 21.3333 9.99996H21.156L20.2493 23.6C20.1817 24.6123 19.7319 25.5612 18.9909 26.2543C18.25 26.9475 17.2733 27.3332 16.2587 27.3333H7.768C6.75423 27.3333 5.77829 26.9483 5.03748 26.2563C4.29667 25.5642 3.84627 24.6167 3.77733 23.6053L2.84933 9.99996H2.66667C1.95942 9.99996 1.28115 9.71901 0.781048 9.21891C0.280951 8.71881 0 8.04054 0 7.33329V5.99996C0 5.29272 0.280951 4.61444 0.781048 4.11434C1.28115 3.61424 1.95942 3.33329 2.66667 3.33329H8ZM21.3333 5.99996H2.66667V7.33329H21.3333V5.99996ZM5.52133 9.99996L6.43733 23.424C6.46032 23.7612 6.61051 24.0771 6.85754 24.3078C7.10457 24.5385 7.43 24.6667 7.768 24.6666H16.2587C16.5971 24.6667 16.9229 24.5381 17.17 24.3068C17.4171 24.0755 17.567 23.759 17.5893 23.4213L18.4827 9.99996H5.52267H5.52133ZM9.33333 11.3333C9.68696 11.3333 10.0261 11.4738 10.2761 11.7238C10.5262 11.9739 10.6667 12.313 10.6667 12.6666V22C10.6667 22.3536 10.5262 22.6927 10.2761 22.9428C10.0261 23.1928 9.68696 23.3333 9.33333 23.3333C8.97971 23.3333 8.64057 23.1928 8.39052 22.9428C8.14048 22.6927 8 22.3536 8 22V12.6666C8 12.313 8.14048 11.9739 8.39052 11.7238C8.64057 11.4738 8.97971 11.3333 9.33333 11.3333ZM14.6667 11.3333C15.0203 11.3333 15.3594 11.4738 15.6095 11.7238C15.8595 11.9739 16 12.313 16 12.6666V22C16 22.3536 15.8595 22.6927 15.6095 22.9428C15.3594 23.1928 15.0203 23.3333 14.6667 23.3333C14.313 23.3333 13.9739 23.1928 13.7239 22.9428C13.4738 22.6927 13.3333 22.3536 13.3333 22V12.6666C13.3333 12.313 13.4738 11.9739 13.7239 11.7238C13.9739 11.4738 14.313 11.3333 14.6667 11.3333Z" fill="#FF4433"/>
</svg>
